<svg width="115" height="115" viewBox="0 0 115 115" fill="none" xmlns="http://www.w3.org/2000/svg">
<path d="M28.3868 19.3141V42.1823H24.1114V23.0051H15.7743V42.1823H11.4988V19.3141H28.3868Z" fill="#AAD2FF"/>
<path d="M40.2013 34.0308H34.914V30.3555H40.2013C41.0184 30.3555 41.6835 30.2089 42.1965 29.9158C42.7096 29.6121 43.0849 29.1933 43.3224 28.6593C43.5599 28.1253 43.6787 27.5232 43.6787 26.8531C43.6787 26.1725 43.5599 25.539 43.3224 24.9526C43.0849 24.3663 42.7096 23.8951 42.1965 23.5391C41.6835 23.1831 41.0184 23.0051 40.2013 23.0051H36.3962V42.1823H32.1207V19.3141H40.2013C41.826 19.3141 43.2179 19.6387 44.377 20.2879C45.5456 20.9266 46.4387 21.8114 47.0563 22.9422C47.6738 24.0731 47.9826 25.3662 47.9826 26.8217C47.9826 28.298 47.6738 29.5755 47.0563 30.654C46.4387 31.7324 45.5456 32.5649 44.377 33.1512C43.2179 33.7376 41.826 34.0308 40.2013 34.0308Z" fill="#AAD2FF"/>
<path d="M57.0038 23.225L51.3602 42.1823H46.814L54.5241 19.3141H57.4171L57.0038 23.225ZM61.6926 42.1823L56.0347 23.225L55.5787 19.3141H58.5002L66.253 42.1823H61.6926ZM61.436 33.6695V37.3605H50.4766V33.6695H61.436Z" fill="#AAD2FF"/>
<path d="M76.3003 32.146H70.9703L70.9418 28.9106H75.4167C76.2053 28.9106 76.8514 28.8006 77.3549 28.5807C77.8585 28.3504 78.2338 28.0206 78.4808 27.5913C78.7373 27.1515 78.8656 26.6175 78.8656 25.9892C78.8656 25.2772 78.7421 24.7013 78.4951 24.2616C78.2575 23.8218 77.8822 23.5024 77.3692 23.3035C76.8656 23.1045 76.2148 23.0051 75.4167 23.0051H72.4524V42.1823H68.177V19.3141H75.4167C76.6234 19.3141 77.7017 19.4398 78.6518 19.6911C79.6114 19.9424 80.4238 20.3246 81.0888 20.8376C81.7539 21.3507 82.2622 21.9999 82.6137 22.7852C82.9653 23.56 83.141 24.4814 83.141 25.5495C83.141 26.4918 82.9463 27.3609 82.5567 28.1567C82.1767 28.9525 81.5734 29.6016 80.7468 30.1042C79.9297 30.6068 78.8609 30.8843 77.5402 30.9367L76.3003 32.146ZM76.1151 42.1823H69.8017L71.4691 38.507H76.1151C76.8656 38.507 77.4785 38.3761 77.9535 38.1144C78.4286 37.8421 78.7801 37.4756 79.0081 37.0149C79.2361 36.5542 79.3502 36.0254 79.3502 35.4286C79.3502 34.7585 79.2456 34.1774 79.0366 33.6852C78.8371 33.1931 78.5141 32.8162 78.0675 32.5544C77.621 32.2822 77.0319 32.146 76.3003 32.146H72.1817L72.2102 28.9106H77.3407L78.324 30.1828C79.5877 30.1618 80.6043 30.4079 81.3739 30.921C82.1529 31.4236 82.7182 32.078 83.0698 32.8842C83.4308 33.6905 83.6113 34.5543 83.6113 35.4757C83.6113 36.9416 83.3216 38.1772 82.742 39.1824C82.1624 40.1771 81.3121 40.9258 80.191 41.4284C79.0794 41.931 77.7207 42.1823 76.1151 42.1823Z" fill="#AAD2FF"/>
<path d="M103.863 30.2142V31.2979C103.863 33.036 103.649 34.5962 103.221 35.9783C102.794 37.3605 102.191 38.5384 101.411 39.5122C100.632 40.4755 99.7013 41.2137 98.6182 41.7268C97.5445 42.2398 96.3522 42.4964 95.041 42.4964C93.7394 42.4964 92.547 42.2398 91.4639 41.7268C90.3903 41.2137 89.4592 40.4755 88.6706 39.5122C87.882 38.5384 87.2692 37.3605 86.8322 35.9783C86.4046 34.5962 86.1909 33.036 86.1909 31.2979V30.2142C86.1909 28.4656 86.4046 26.9054 86.8322 25.5338C87.2597 24.1516 87.863 22.9737 88.6421 21.9999C89.4307 21.0261 90.3618 20.2827 91.4354 19.7696C92.5185 19.2565 93.7109 19 95.0125 19C96.3237 19 97.516 19.2565 98.5897 19.7696C99.6728 20.2827 100.604 21.0261 101.383 21.9999C102.172 22.9737 102.78 24.1516 103.207 25.5338C103.644 26.9054 103.863 28.4656 103.863 30.2142ZM99.5445 31.2979V30.1828C99.5445 28.9682 99.4447 27.9001 99.2452 26.9787C99.0457 26.0573 98.7512 25.2825 98.3616 24.6542C97.9721 24.026 97.497 23.5548 96.9365 23.2407C96.3759 22.9161 95.7346 22.7538 95.0125 22.7538C94.2905 22.7538 93.6491 22.9161 93.0886 23.2407C92.5375 23.5548 92.0672 24.026 91.6777 24.6542C91.2976 25.2825 91.0079 26.0573 90.8083 26.9787C90.6088 27.9001 90.5091 28.9682 90.5091 30.1828V31.2979C90.5091 32.502 90.6088 33.5701 90.8083 34.502C91.0079 35.4234 91.3024 36.2035 91.6919 36.8422C92.0815 37.4704 92.5565 37.9468 93.1171 38.2714C93.6776 38.596 94.319 38.7583 95.041 38.7583C95.7631 38.7583 96.4044 38.596 96.965 38.2714C97.5255 37.9468 97.9958 37.4704 98.3759 36.8422C98.7559 36.2035 99.0457 35.4234 99.2452 34.502C99.4447 33.5701 99.5445 32.502 99.5445 31.2979Z" fill="#AAD2FF"/>
<path d="M19.124 68.6335H23.4609C24.8502 68.6335 25.9955 68.3749 26.8967 67.8576C27.7978 67.3196 28.4643 66.5748 28.8961 65.623C29.3467 64.6505 29.572 63.5228 29.572 62.24C29.572 61.0813 29.3655 60.0571 28.9525 59.1674C28.5582 58.257 27.948 57.5535 27.1219 57.0569C26.2959 56.5397 25.2539 56.281 23.996 56.281C23.0009 56.281 22.081 56.4983 21.2361 56.9328C20.3912 57.3673 19.7154 57.9777 19.2084 58.7639C18.7015 59.5502 18.4481 60.502 18.4481 61.6193H10.3093C10.3093 59.1364 10.9101 56.9742 12.1116 55.1327C13.332 53.2912 14.9654 51.8532 17.0118 50.8186C19.0582 49.7841 21.3112 49.2668 23.7707 49.2668C26.5493 49.2668 28.9806 49.7634 31.0646 50.7565C33.1486 51.729 34.7726 53.167 35.9366 55.0706C37.1007 56.9742 37.6827 59.3329 37.6827 62.1469C37.6827 63.5746 37.3823 64.9609 36.7815 66.3058C36.1807 67.63 35.3171 68.8301 34.1906 69.906C33.0829 70.9612 31.7311 71.8096 30.1353 72.451C28.5394 73.0717 26.7465 73.3821 24.7563 73.3821H19.124V68.6335ZM19.124 75.4305V70.8061H24.7563C26.9905 70.8061 28.9525 71.0854 30.6422 71.644C32.3319 72.2027 33.7494 73.0096 34.8946 74.0649C36.0399 75.0994 36.9035 76.3305 37.4855 77.7582C38.0675 79.1652 38.3586 80.7274 38.3586 82.4447C38.3586 84.5552 37.9924 86.4381 37.2602 88.0933C36.528 89.7279 35.4954 91.1142 34.1624 92.2522C32.8482 93.3902 31.3087 94.2592 29.5439 94.8593C27.7791 95.4386 25.8547 95.7283 23.7707 95.7283C22.0434 95.7283 20.3443 95.4697 18.6734 94.9524C17.0212 94.4144 15.5192 93.6178 14.1675 92.5626C12.8345 91.4867 11.7643 90.1417 10.957 88.5278C10.1685 86.8933 9.7742 84.9587 9.7742 82.724H17.913C17.913 83.8827 18.1758 84.9173 18.7015 85.8277C19.2272 86.7381 19.95 87.4519 20.87 87.9692C21.8087 88.4865 22.8507 88.7451 23.996 88.7451C25.2914 88.7451 26.3991 88.4865 27.3191 87.9692C28.2578 87.4312 28.9712 86.6864 29.4594 85.7346C29.9663 84.7621 30.2198 83.6344 30.2198 82.3516C30.2198 80.6963 29.9475 79.3721 29.4031 78.3789C28.8586 77.3651 28.0795 76.6202 27.0656 76.1443C26.0518 75.6684 24.8502 75.4305 23.4609 75.4305H19.124Z" fill="#AAD2FF"/>
<path d="M70.9565 68.5404V76.3616C70.9565 79.7549 70.628 82.6827 69.9709 85.1449C69.3138 87.5864 68.3657 89.5934 67.1265 91.1659C65.9062 92.7178 64.4511 93.8661 62.7614 94.611C61.0717 95.3559 59.1943 95.7283 57.129 95.7283C55.4769 95.7283 53.9374 95.5007 52.5105 95.0455C51.0836 94.5696 49.7976 93.8351 48.6523 92.8419C47.5258 91.8487 46.5495 90.5969 45.7235 89.0865C44.9162 87.5554 44.2966 85.7346 43.8648 83.6241C43.433 81.5136 43.2171 79.0928 43.2171 76.3616V68.5404C43.2171 65.1471 43.5456 62.24 44.2027 59.8192C44.8786 57.3776 45.8267 55.381 47.0471 53.8291C48.2862 52.2773 49.7506 51.1393 51.4403 50.4151C53.13 49.6703 55.0075 49.2978 57.0727 49.2978C58.7249 49.2978 60.255 49.5358 61.6631 50.0117C63.09 50.4669 64.376 51.1807 65.5213 52.1532C66.6665 53.1257 67.6428 54.3775 68.4501 55.9086C69.2574 57.419 69.877 59.2295 70.3088 61.34C70.7406 63.4297 70.9565 65.8299 70.9565 68.5404ZM62.8178 77.541V67.33C62.8178 65.6954 62.7333 64.2677 62.5643 63.047C62.4141 61.8262 62.1794 60.7916 61.8602 59.9433C61.5411 59.0743 61.1468 58.3708 60.6774 57.8328C60.2081 57.2949 59.673 56.9017 59.0722 56.6535C58.4714 56.4052 57.8049 56.281 57.0727 56.281C56.1528 56.281 55.3361 56.4776 54.6226 56.8707C53.928 57.2638 53.3366 57.8949 52.8484 58.7639C52.3603 59.6123 51.9848 60.7503 51.722 62.1779C51.4779 63.5849 51.3558 65.3023 51.3558 67.33V77.541C51.3558 79.1755 51.4309 80.6136 51.5811 81.855C51.7501 83.0965 51.9942 84.1621 52.3134 85.0518C52.6513 85.9208 53.0456 86.6346 53.4962 87.1933C53.9655 87.7312 54.5006 88.1244 55.1014 88.3727C55.7209 88.621 56.3968 88.7451 57.129 88.7451C58.0302 88.7451 58.8281 88.5485 59.5228 88.1554C60.2362 87.7416 60.837 87.1002 61.3252 86.2312C61.8321 85.3414 62.2076 84.1827 62.4516 82.7551C62.6957 81.3274 62.8178 79.5894 62.8178 77.541Z" fill="#AAD2FF"/>
<path d="M103.498 68.5404V76.3616C103.498 79.7549 103.17 82.6827 102.513 85.1449C101.855 87.5864 100.907 89.5934 99.6682 91.1659C98.4478 92.7178 96.9928 93.8661 95.3031 94.611C93.6134 95.3559 91.7359 95.7283 89.6707 95.7283C88.0185 95.7283 86.479 95.5007 85.0522 95.0455C83.6253 94.5696 82.3392 93.8351 81.194 92.8419C80.0675 91.8487 79.0912 90.5969 78.2651 89.0865C77.4578 87.5554 76.8383 85.7346 76.4064 83.6241C75.9746 81.5136 75.7587 79.0928 75.7587 76.3616V68.5404C75.7587 65.1471 76.0873 62.24 76.7444 59.8192C77.4203 57.3776 78.3684 55.381 79.5887 53.8291C80.8279 52.2773 82.2923 51.1393 83.982 50.4151C85.6717 49.6703 87.5492 49.2978 89.6144 49.2978C91.2666 49.2978 92.7967 49.5358 94.2048 50.0117C95.6317 50.4669 96.9177 51.1807 98.063 52.1532C99.2082 53.1257 100.184 54.3775 100.992 55.9086C101.799 57.419 102.419 59.2295 102.85 61.34C103.282 63.4297 103.498 65.8299 103.498 68.5404ZM95.3594 77.541V67.33C95.3594 65.6954 95.2749 64.2677 95.106 63.047C94.9558 61.8262 94.7211 60.7916 94.4019 59.9433C94.0827 59.0743 93.6885 58.3708 93.2191 57.8328C92.7498 57.2949 92.2147 56.9017 91.6139 56.6535C91.0131 56.4052 90.3466 56.281 89.6144 56.281C88.6944 56.281 87.8777 56.4776 87.1643 56.8707C86.4696 57.2638 85.8782 57.8949 85.3901 58.7639C84.902 59.6123 84.5265 60.7503 84.2636 62.1779C84.0195 63.5849 83.8975 65.3023 83.8975 67.33V77.541C83.8975 79.1755 83.9726 80.6136 84.1228 81.855C84.2918 83.0965 84.5359 84.1621 84.855 85.0518C85.193 85.9208 85.5872 86.6346 86.0378 87.1933C86.5072 87.7312 87.0423 88.1244 87.6431 88.3727C88.2626 88.621 88.9385 88.7451 89.6707 88.7451C90.5719 88.7451 91.3698 88.5485 92.0645 88.1554C92.7779 87.7416 93.3787 87.1002 93.8668 86.2312C94.3738 85.3414 94.7492 84.1827 94.9933 82.7551C95.2374 81.3274 95.3594 79.5894 95.3594 77.541Z" fill="#AAD2FF"/>
</svg>
