<?xml version="1.0" encoding="UTF-8"?>
<svg xmlns="http://www.w3.org/2000/svg" viewBox="0 0 427.77 60.33"><defs><style>.cls-1{fill:#111;}</style></defs><g id="Слой_2" data-name="Слой 2"><g id="Слой_1-2" data-name="Слой 1"><path class="cls-1" d="M0,54.49V10.89H6.62v43.6Zm13.18-4.17V10.89h6.64V50.32Zm12.84-.11V10.89h6.64V50.21Zm12.61,0V10.89H45.2V50.21Zm12.85,0V5.93H58V50.21ZM0,60.33V54.38H32.63v5.95ZM38.57,6V0H58V6Z"></path><path class="cls-1" d="M80,41.05V19.28h5v17h5.3v-17h5v17h5.29v-17h5V41.05Zm39.79-6.41c-1.93,4.7-5.07,6.63-9.15,6.41V36.38A4,4,0,0,0,115,34.24l-7-15h5l4.27,9.52,3.83-9.52h5L119.8,34.64Zm25.28,6.41V28.39l-5.63,9.24h-.56l-5.64-9.24V41.05h-5V19.28h5L139.17,29l5.91-9.67h5V41.05ZM164.2,23.7c-3.86,0-6.36,2.58-6.36,6.47s2.5,6.46,6.36,6.46a5.59,5.59,0,0,0,5-2.67l4.3,2.49a10.82,10.82,0,0,1-9.34,5,11,11,0,0,1-11.34-11.31A11,11,0,0,1,164.2,18.85a10.89,10.89,0,0,1,9.34,5l-4.3,2.49a5.62,5.62,0,0,0-5-2.67Zm29.29,17.35h-5.66l-7-10.08V41.05h-5V19.28h5v9.46l6.67-9.46h5.66l-7.35,10.61,7.66,11.16Zm16.35,0-1.09-3.42h-8.1l-1.09,3.42h-5.45l7.41-21.77h6.36l7.41,21.77ZM204.7,25l-2.55,8h5.1l-2.55-8Zm23.51,16.08V33.9h-1.59L222,41.05h-5.61l5.11-7.78A7.21,7.21,0,0,1,217,26.75a7.45,7.45,0,0,1,7.47-7.47h8.72V41.05Zm0-17.1h-3.74a2.63,2.63,0,0,0-2.49,2.8,2.63,2.63,0,0,0,2.49,2.79h3.74V24Zm28.64,17.1V29.23l-8.41,11.82h-3.73V19.28h5V31.1l8.4-11.82h3.74V41.05Zm28,0v-17h-6.54v17h-5V19.28h16.5V41.05Zm22.57,0-1.09-3.42h-8.09l-1.09,3.42h-5.45l7.41-21.77h6.35l7.41,21.77ZM302.3,25l-2.55,8h5.11l-2.56-8ZM323,34.21h-3.27v6.84h-5V19.28H323a7.47,7.47,0,1,1,0,14.93ZM323,24h-3.27v5.59H323a2.66,2.66,0,0,0,2.64-2.79A2.66,2.66,0,0,0,323,24Zm18.83.12v17h-5v-17h-5.6V19.28h16.19v4.79Zm19.62,17V32.4h-6.85v8.65h-5V19.28h5v8.34h6.85V19.28h5V41.05Zm22.41-4.79v4.79h-13.7V19.28h13.55v4.79h-8.56v3.61h7.78V32.4h-7.78v3.86Zm11.06-2h-3.27v6.84h-5V19.28h8.26a7.47,7.47,0,1,1,0,14.93Zm0-10.26h-3.27v5.59h3.27a2.66,2.66,0,0,0,2.64-2.79,2.66,2.66,0,0,0-2.64-2.8Zm27.86,17.1V19.28h5V41.05Zm-9.5,0H405V19.28h5v6.84h3.27a7.47,7.47,0,1,1,0,14.93Zm0-10.26H410v5.59h3.27a2.8,2.8,0,0,0,0-5.59Z"></path></g></g></svg>
